<?xml version="1.0" encoding="UTF-8" standalone="no"?>
<svg
   width="651"
   height="606"
   version="1.1"
   id="svg56"
   sodipodi:docname="trollFace.svg"
   inkscape:version="1.2.1 (9c6d41e410, 2022-07-14, custom)"
   xmlns:inkscape="http://www.inkscape.org/namespaces/inkscape"
   xmlns:sodipodi="http://sodipodi.sourceforge.net/DTD/sodipodi-0.dtd"
   xmlns="http://www.w3.org/2000/svg"
   xmlns:svg="http://www.w3.org/2000/svg">
  <sodipodi:namedview
     id="namedview58"
     pagecolor="#ffffff"
     bordercolor="#000000"
     borderopacity="0.25"
     inkscape:showpageshadow="2"
     inkscape:pageopacity="0.0"
     inkscape:pagecheckerboard="0"
     inkscape:deskcolor="#d1d1d1"
     showgrid="false"
     inkscape:zoom="1.6947195"
     inkscape:cx="230.42162"
     inkscape:cy="303.59007"
     inkscape:window-width="3440"
     inkscape:window-height="1354"
     inkscape:window-x="0"
     inkscape:window-y="32"
     inkscape:window-maximized="1"
     inkscape:current-layer="svg56" />
  <defs
     id="defs47">.str0 {stroke:black;stroke-width:0.238063}
    .fil0 {fill:black}
    .fil2 {fill:#050707}
    .fil3 {fill:#881846}
    .fil5 {fill:#F6BCD6}
    .fil1 {fill:#F9DD56}
    .fil4 {fill:#FDFCFD}</defs>
  <g
     label="Layer 1"
     id="imagebot_2"
     transform="translate(-0.87494604,0.85049192)">
    <g
       transform="translate(-88.0347,-233.58799)"
       label="Layer 1"
       id="imagebot_3">
      <path
         fill="#000000"
         d="m 569.92,838.8 c -7.741,-0.239 -17.24,-0.69 -21.111,-1.001 -7.29,-0.587 -10.401,-1.377 -59.841,-15.192 -21.874,-6.112 -44.982,-11.733 -55.508,-13.502 -4.016,-0.675 -8.379,-1.845 -11.585,-3.107 -8.315,-3.271 -31.349,-14.987 -51.423,-26.154 -29.098,-16.187 -47.712,-26.088 -63.707,-33.886 -23.388,-11.403 -44.404,-24.104 -67.829,-40.994 -14.626,-10.545 -22.294,-17.099 -34.914,-29.843 -22.626,-22.847 -34.994,-40.592 -45.463,-65.23 -8.517,-20.042 -17.482,-34.584 -29.534,-47.905 -6.184,-6.834 -13.91,-16.73 -18.809,-24.088 -5.444,-8.177 -11.85,-20.95 -14.387,-28.688 -5.6138,-17.121 -7.7743,-41.921 -4.975,-57.108 2.9398,-15.948 11.495,-30.332 32.194,-54.129 2.848,-3.275 5.304,-6.077 5.457,-6.226 1.011,-0.981 7.769,-8.905 12.392,-14.528 12.428,-15.114 19.81,-27.477 28.496,-47.722 11.979,-27.921 24.143,-48.011 39.92,-65.938 8.266,-9.391 13.385,-13.696 28.707,-24.14 l 8.556,-5.831 86.171,0.328 c 47.394,0.18 89.094,0.435 92.667,0.567 3.573,0.132 13.438,0.502 21.923,0.823 87.45,3.311 141.51,12.599 179.23,30.797 21.409,10.328 44.242,27.929 55.107,42.48 6.09,8.156 9.79,17.636 9.79,25.082 0,12.989 3.786,27.023 9.725,36.046 3.711,5.639 6.4,8.457 12.735,13.347 11.202,8.648 17.478,18.299 21.137,32.506 3.028,11.759 4.364,28.617 3.859,48.717 -0.616,24.51 -1.181,26.451 -19.312,66.309 l -9.357,20.569 0.34,56.566 c 0.187,31.111 0.455,59.854 0.596,63.873 0.141,4.019 0.393,11.936 0.56,17.592 0.619,20.927 1.085,30.362 3.033,61.297 l 1.099,17.452 -5.539,9.884 c -12.306,21.957 -20.148,31.137 -35.078,41.063 -9.841,6.542 -25.396,13.785 -35.762,16.652 -12.852,3.554 -31.587,4.432 -69.557,3.259 z m 43.304,-16.411 c 20.227,-1.953 27.413,-3.678 39.696,-9.53 16.215,-7.724 28.368,-18.106 37.222,-31.798 2.845,-4.399 7.643,-14.259 9.208,-18.92 1.749,-5.21 2.221,-13.486 1.35,-23.691 -2.661,-31.205 -3.219,-49.338 -3.901,-126.66 l -0.596,-67.662 9.774,-21.502 c 16.743,-36.833 17.987,-40.679 19.071,-58.966 0.897,-15.121 -0.441,-31.433 -3.323,-40.512 -1.619,-5.103 -4.977,-11.639 -8.139,-15.841 -1.516,-2.014 -6.826,-7.738 -11.801,-12.72 -17.281,-17.306 -22.633,-28.688 -23.857,-50.739 -0.684,-12.307 -2.863,-18.563 -9.242,-26.524 -10.222,-12.758 -37.239,-31.756 -56.822,-39.957 -16.755,-7.016 -30.944,-8.951 -59.806,-8.155 -22.723,0.627 -47.13,0.51 -57.919,-0.278 -12.459,-0.911 -17.277,-1.431 -38.162,-4.121 -24.088,-3.102 -37.082,-4.412 -51.153,-5.157 -22.211,-1.176 -41.205,1.003 -59.153,6.785 -28.411,9.152 -70.92,33.187 -96.759,54.709 -9.492,7.906 -16.598,12.758 -17.445,11.911 -1.967,-1.967 20.152,-20.268 46.693,-38.634 21.252,-14.706 35.566,-22.183 54.584,-28.512 35.451,-11.798 71.932,-14.135 109.97,-7.046 18.848,3.513 49.958,5.977 82.819,6.561 18.036,0.32 27.321,-0.11 28.533,-1.323 0.727,-0.727 -2.629,-2.45 -6.914,-3.55 -13.244,-3.399 -50.297,-7.073 -87.928,-8.718 -3.721,-0.162 -8.958,-0.411 -11.638,-0.553 -5.461,-0.289 -19.047,-0.722 -41.951,-1.338 -8.485,-0.229 -46.378,-0.368 -84.207,-0.311 l -68.78,0.105 -9.438,6.382 c -10.862,7.345 -13.618,9.553 -20.065,16.075 -15.478,15.658 -28.64,37.291 -41.618,68.401 -5.758,13.801 -12.948,28.779 -16.242,33.831 -1.262,1.935 -3.876,5.417 -5.808,7.737 -1.933,2.32 -3.423,4.299 -3.312,4.396 0.222,0.195 27.876,0.841 36.424,0.851 2.952,0.004 5.222,0.153 5.043,0.332 -0.179,0.179 -5.883,0.913 -12.675,1.631 -19.576,2.07 -32.77,4.652 -39.12,7.657 -10.905,5.159 -36.052,40.682 -40.072,56.606 -4.441,17.592 -1.118,40.275 8.92,60.898 8.134,16.713 18.068,27.417 30.973,33.38 4.901,2.264 10.98,6.505 10.98,7.66 0,1.039 -2.374,0.841 -7.695,-0.641 -2,-0.558 -3.802,-0.848 -4.004,-0.645 -0.469,0.469 1.393,3.274 6.551,9.873 6.829,8.737 15.494,24.534 21.611,39.401 11.364,27.62 36.567,59.106 63.819,79.731 19.506,14.762 57.836,38.507 72.905,45.164 10.12,4.471 39.347,20.011 66.038,35.114 13.529,7.655 36.278,19.167 46.01,23.283 5.037,2.131 8.772,3.269 14.615,4.454 17.295,3.51 33.925,7.917 83.32,22.08 30.174,8.652 31.901,9.071 40.35,9.779 8.335,0.698 43.05,0.189 53.064,-0.779 z m -26.52,-52.85 c -41.979,-0.632 -72.017,-2.065 -90.126,-4.3 -53.399,-6.59 -118.69,-23.783 -163.74,-43.12 -16.624,-7.134 -47.12,-23.612 -72.263,-39.045 -15.876,-9.745 -28.148,-18.288 -28.148,-19.596 0,-2.204 11.648,3.775 36.538,18.757 27.605,16.615 35.139,20.883 50.05,28.349 31.413,15.729 60.194,25.346 112.61,37.628 51.084,11.97 70.117,14.408 130.72,16.746 11.611,0.448 23.79,0.934 27.065,1.081 9.023,0.403 27.97,1.084 29.501,1.059 0.832,-0.013 6.048,-3.223 13.532,-8.327 33.393,-22.771 34.758,-24.201 36.486,-38.218 0.425,-3.451 0.887,-6.389 1.027,-6.528 0.461,-0.462 1.042,15.873 0.65,18.279 -0.504,3.082 -2.595,6.919 -5.065,9.291 -2.523,2.424 -11.229,8.648 -27.595,19.731 l -12.989,8.796 -5.594,-0.088 c -3.077,-0.048 -17.774,-0.271 -32.66,-0.495 z m -54.13,-23.587 c -16.172,-0.248 -51.029,-1.891 -73.075,-3.445 -29.091,-2.051 -41.516,-5.062 -71.993,-17.448 -23.855,-9.695 -55.98,-25.295 -87.735,-42.605 -13.236,-7.216 -28.16,-16.215 -30.743,-18.538 -2.187,-1.968 -2.203,-2.008 -0.81,-2.03 2.531,-0.04 17.749,7.408 40.259,19.705 21.553,11.774 47.576,24.644 68.522,33.889 2.802,1.237 14.96,6.334 27.017,11.327 l 21.923,9.078 6.495,0.358 c 3.573,0.197 10.758,0.595 15.968,0.885 19.658,1.094 59.189,3.211 70.91,3.797 6.699,0.335 20.948,0.62 31.666,0.633 21.416,0.027 30.766,-0.68 40.66,-3.076 14.285,-3.459 21.972,-8.055 35.392,-21.159 7.682,-7.501 11.432,-10.531 13.035,-10.531 0.82,0 0.892,0.25 0.483,1.676 -2.1,7.323 -18.442,21.579 -33.292,29.042 -8.001,4.022 -16.819,6.126 -31.035,7.407 -8.795,0.793 -28.691,1.265 -43.648,1.036 z m -57.919,-24.506 -3.789,-0.31 4.063,-0.417 c 5.241,-0.537 56.581,-0.544 62.406,-0.008 l 4.441,0.409 -3.518,0.35 c -4.301,0.429 -58.325,0.408 -63.603,-0.024 z m 2.436,-18.224 c -1.638,-0.109 -8.043,-0.452 -14.234,-0.762 -40.001,-2.004 -73.356,-8.342 -100.24,-19.047 C 335.21,672.5 301.39,649.17 275.71,623.463 c -19.565,-19.585 -31.484,-35.575 -50.863,-68.235 -10.275,-17.315 -16.662,-27.229 -20.2,-31.355 -2.92,-3.405 -3.461,-5.417 -2.482,-9.238 0.968,-3.774 0.005,-9.319 -2.509,-14.46 -2.92,-5.971 -5.372,-7.182 -14.593,-7.203 -10.484,-0.024 -17.144,-2.536 -17.487,-6.596 -0.141,-1.679 0.09,-2.147 1.624,-3.282 0.984,-0.729 4.225,-2.244 7.202,-3.369 7.219,-2.726 14.011,-6.251 17.322,-8.988 5.019,-4.151 7.24,-8.274 9.514,-17.662 2.638,-10.894 7.691,-16.778 11.305,-13.164 0.937,0.937 2.008,3.918 2.93,8.151 2.414,11.087 34.657,29.416 92.398,52.524 31.714,12.692 78.074,29.125 99.154,35.147 25.502,7.285 50.575,12.199 76.459,14.986 11.088,1.194 46.072,1.371 55.212,0.28 29.25,-3.493 48.886,-10.079 68.204,-22.877 18.624,-12.338 25.418,-23.355 27.851,-45.157 0.332,-2.977 1.118,-7.926 1.746,-10.997 1.533,-7.49 3.532,-10.408 6.603,-9.637 2.583,0.648 4.383,4.818 5.672,13.146 0.841,5.43 2.58,9.726 5,12.351 2.56,2.777 3.804,5.627 5.59,12.812 7.096,28.542 8.171,90.969 2.186,126.95 -6.387,38.402 -21.69,55.919 -57.083,65.341 -16.274,4.332 -41.384,7.736 -70.369,9.539 -9.318,0.58 -53.181,1.135 -59.002,0.747 z m 24.849,-17.676 c 0.312,-1.563 0.799,-4.303 1.081,-6.09 0.282,-1.786 1.384,-8.306 2.447,-14.49 2.697,-15.673 2.548,-19.519 -0.825,-21.264 -1.759,-0.909 -6.52,-1.646 -15.644,-2.421 -9.343,-0.793 -19.88,-2.48 -25.891,-4.145 -4.381,-1.214 -5.154,-1.296 -5.825,-0.625 -1.318,1.318 -2.3,7.826 -2.967,19.669 -0.895,15.898 -0.07,28.333 1.982,29.862 1.801,1.342 13.202,2.149 31.986,2.265 l 13.088,0.081 z m 35.941,1.469 c 4.029,-1.231 5.725,-3.183 9.728,-11.196 2.773,-5.553 11.217,-26.186 11.217,-27.41 0,-0.703 -10.98,-1.435 -21.11,-1.408 -12.523,0.034 -12.846,0.265 -15.654,11.192 -1.203,4.684 -5.457,28.05 -5.457,29.976 0,0.189 4.08,0.223 9.066,0.075 6.494,-0.193 9.959,-0.541 12.209,-1.229 z m 34.806,-4.34 c 2.711,-0.689 6.431,-1.422 8.267,-1.63 1.836,-0.208 3.507,-0.65 3.715,-0.983 0.207,-0.333 0.4,-2.554 0.429,-4.936 0.075,-6.186 1.222,-9.472 10.634,-30.488 0.577,-1.287 0.973,-2.533 0.882,-2.768 -0.092,-0.235 -2.955,0.393 -6.361,1.396 -3.406,1.002 -7.779,2.099 -9.717,2.436 -4.127,0.719 -4.799,1.331 -7.341,6.69 -1.786,3.765 -9.497,28.562 -9.497,30.54 0,1.898 0.571,1.882 8.988,-0.257 z m -136.22,0.857 c 1.582,-0.847 2.661,-4.405 3.235,-10.671 0.634,-6.908 1.926,-40.689 1.571,-41.044 -0.135,-0.135 -4.858,-1.57 -10.495,-3.19 -19.005,-5.461 -28.641,-8.937 -50.285,-18.139 -3.562,-1.514 -6.507,-2.753 -6.546,-2.753 -0.039,0 -0.228,3.975 -0.42,8.833 -0.466,11.812 -1.657,16.439 -7.022,27.265 -8.631,17.418 -7.325,20.381 12.072,27.39 23.274,8.41 53.262,14.786 57.889,12.309 z m 169.89,-8.363 c 1.839,-0.721 5.096,-1.583 7.236,-1.915 2.353,-0.365 5.13,-1.263 7.022,-2.272 3.169,-1.689 9.668,-7.143 9.668,-8.113 0,-0.329 -1.427,-0.388 -3.779,-0.157 -3.026,0.298 -4.045,0.198 -5.116,-0.503 -2.769,-1.814 -2.777,-6.316 -0.03,-17.152 2.066,-8.15 1.734,-10.804 -1.117,-8.936 -3.796,2.488 -10.275,13.631 -15.282,26.285 -5.88,14.86 -5.801,15.584 1.397,12.763 z m 30.669,-17.818 c 3.356,-5.728 11.386,-26.904 12.416,-32.744 1.491,-8.46 -11.188,17.737 -14.41,29.77 -1.643,6.136 -0.691,7.555 1.994,2.974 z m -288.09,-10.88 c 9.584,-22.459 12.062,-34.47 8.446,-40.943 -1.814,-3.248 -3.213,-4.096 -11.094,-6.719 -10.234,-3.407 -19.406,-7.616 -39.78,-18.255 l -13.865,-7.24 -0.299,8.414 c -0.405,11.409 -1.727,16.291 -6.42,23.719 -3.037,4.805 0.177,8.179 28.496,29.909 7.145,5.482 16.523,12.707 20.84,16.053 4.316,3.346 8.098,6.093 8.402,6.104 0.305,0.012 2.678,-4.958 5.275,-11.043 z m -74.789,-51.874 c 1.011,-0.676 2.265,-2.077 2.785,-3.113 1.927,-3.834 0.785,-18.533 -1.882,-24.231 -2.486,-5.312 -8.517,-9.74 -24.298,-17.842 -9.636,-4.947 -13.971,-6.852 -14.465,-6.357 -1.412,1.411 23.79,39.838 32.924,50.201 1.246,1.414 2.453,2.571 2.682,2.571 0.228,0 1.242,-0.553 2.254,-1.229 z m 180.5,-4.32 c -0.195,-3.052 -0.583,-8.837 -0.863,-12.856 -0.28,-4.019 -0.556,-8.581 -0.613,-10.138 -0.057,-1.557 -0.243,-3.048 -0.413,-3.314 -0.17,-0.266 -1.528,-0.749 -3.016,-1.073 -1.489,-0.323 -7.944,-1.821 -14.344,-3.329 -43.557,-10.257 -46.748,-10.796 -48.169,-8.14 -0.705,1.317 -4.16,16.105 -4.95,21.184 -1.017,6.54 0.138,9.671 4.361,11.825 2.821,1.439 14.8,5.053 22.235,6.708 10.037,2.234 21.212,3.67 31.937,4.104 5.507,0.222 10.954,0.443 12.102,0.49 l 2.088,0.086 -0.354,-5.548 z m 61.402,4.601 c -0.003,-1.37 -2.518,-15.408 -3.597,-20.082 -0.692,-2.996 -1.196,-4.096 -2.043,-4.452 -1.381,-0.582 -12.091,-2.175 -26.836,-3.993 -6.103,-0.753 -12.01,-1.514 -13.126,-1.692 l -2.03,-0.324 v 15.745 15.745 h 23.817 c 22.323,0 23.817,-0.059 23.815,-0.947 z m 45.471,-0.909 c 7.428,-1.084 14.596,-2.849 16.655,-4.101 2.671,-1.625 2.625,-2.958 -0.538,-15.456 -2.564,-10.131 -2.983,-11.325 -3.945,-11.241 -1.561,0.136 -45.976,7.333 -46.152,7.478 -0.34,0.28 1.596,18.858 2.105,20.196 0.68,1.79 2.018,3.325 3.457,3.966 1.603,0.715 21.858,0.114 28.418,-0.843 z m 41.409,-5.18 c 0.893,-0.253 2.902,-0.622 4.465,-0.822 3.124,-0.399 4.205,-1.419 5.758,-5.435 3.572,-9.234 4.286,-22.316 1.689,-30.949 -1.489,-4.949 -3.072,-4.917 -12.454,0.246 -11.295,6.216 -11.995,7.468 -9.823,17.582 0.786,3.661 1.673,9.167 1.97,12.236 0.736,7.599 1.723,9.17 5.101,8.119 0.918,-0.285 2.4,-0.725 3.293,-0.977 z m 33.943,-12.237 c 0.925,-0.479 2.862,-1.974 4.303,-3.322 2.404,-2.248 2.621,-2.66 2.618,-4.949 -0.005,-3.404 -1.594,-9.739 -4.631,-18.465 -3.942,-11.329 -7.487,-18.372 -8.657,-17.202 -1.411,1.412 -1.625,15.035 -0.45,28.719 1.37,15.949 2.129,17.643 6.817,15.219 z m -270.83,-2.682 c 0.599,-0.762 1.369,-2.772 1.709,-4.465 0.341,-1.694 1.546,-7.465 2.678,-12.823 2.41,-11.405 2.33,-12.01 -1.946,-14.754 -2.717,-1.744 -10.372,-4.947 -17.527,-7.335 -13.681,-4.566 -31.135,-10.619 -41.68,-14.457 -13.436,-4.889 -18.354,-5.899 -19.381,-3.98 -0.996,1.862 -1.14,6.111 -0.313,9.289 1.586,6.097 7.944,16.181 14.898,23.628 5.079,5.438 7.658,7.155 12.201,8.124 6.879,1.467 12.238,3.556 28.862,11.25 16.197,7.496 18.466,8.107 20.5,5.523 z m -91.069,-34.691 c 0.986,-2.361 1.078,-11.658 0.228,-23.195 -0.307,-4.168 -0.56,-7.99 -0.563,-8.494 -0.005,-0.972 -0.868,-1.507 -23.01,-14.263 -32.863,-18.932 -40.733,-21.185 -40.467,-11.583 0.108,3.893 3.478,14.382 6.772,21.078 3.776,7.676 10.82,14.028 24.764,22.331 11.516,6.857 29.111,16.065 30.746,16.091 0.387,0.006 1.075,-0.878 1.53,-1.964 z m 374.88,-14.131 c -0.851,-3.314 -3.944,-9.454 -4.922,-9.773 -0.6,-0.195 -0.685,0.203 -0.412,1.916 1.024,6.399 3.984,12.435 5.404,11.015 0.425,-0.426 0.405,-1.306 -0.07,-3.158 z m -487.71,15.549 c -1.58,-0.561 -6.002,-2.647 -9.828,-4.635 -23.909,-12.425 -28.176,-22.312 -29.061,-67.341 -0.37,-18.849 0.209,-29.222 1.991,-35.653 2.101,-7.581 9.345,-19.988 15.271,-26.156 5.403,-5.622 12.301,-9.085 21.521,-10.804 3.616,-0.673 36.084,-1.013 44.657,-0.467 l 4.331,0.275 -7.849,0.713 c -4.317,0.391 -8.823,0.817 -10.014,0.946 -1.191,0.128 -7.281,0.732 -13.532,1.342 -28.821,2.809 -32.047,4.316 -41.664,19.464 -4.827,7.603 -8.169,14.501 -9.574,19.757 -1.031,3.858 -1.184,6.167 -1.404,21.191 -0.459,31.317 1.835,46.53 8.549,56.693 3.869,5.857 7.185,8.669 17.299,14.671 11.122,6.6 14.615,9.2 14.615,10.878 0,0.513 -2.618,0.082 -5.308,-0.873 z m 337.31,0.507 c -4.312,-0.72 -8.598,-2.53 -10.43,-4.405 -1.946,-1.99 -3.831,-6.649 -3.831,-9.467 0,-1.086 0.49,-2.988 1.09,-4.227 1.933,-3.992 5.427,-4.577 9.541,-1.597 5.718,4.142 8.471,4.373 14.458,1.218 6.432,-3.389 16.167,-14.747 21.538,-25.124 2.602,-5.027 2.825,-8.783 0.797,-13.371 -2.318,-5.241 -5.41,-7.916 -10.074,-8.716 -6.269,-1.074 -13.465,-11.845 -15.966,-23.895 -0.489,-2.354 -1.086,-8.711 -1.328,-14.126 -0.621,-13.891 -0.924,-14.429 -11.75,-20.864 -5.897,-3.504 -9.636,-6.905 -10.24,-9.315 -0.589,-2.343 0.175,-4.001 2.349,-5.102 2.504,-1.267 4.046,-1.575 9.87,-1.97 8.645,-0.586 13.965,-2.904 21.31,-9.287 13.184,-11.456 22.498,-15.876 38.774,-18.402 9.079,-1.409 31.529,-1.41 37.533,-0.002 7.424,1.741 11.36,3.945 17.661,9.889 4.382,4.134 6.598,7.5 6.673,10.137 0.225,7.948 -10.307,11.808 -41.568,15.231 -34.803,3.811 -53.656,10.016 -55.965,18.42 -0.735,2.672 -0.75,7.599 -0.045,14.344 1.227,11.747 2.931,14.528 13.609,22.214 12.528,9.018 21.134,16.408 30.431,26.131 9.679,10.123 13.368,12.965 18.066,13.92 4.455,0.905 9.29,3.357 13.84,7.017 3.465,2.787 6.858,6.62 6.858,7.746 0,1.19 -3.634,0.015 -8.14,-2.631 -6.728,-3.951 -19.407,-10.153 -23.644,-11.567 -5.93,-1.978 -7.435,-1.488 -10.747,3.502 -2.534,3.817 -3.898,4.21 -6.726,1.938 -3.308,-2.659 -4.665,-2.312 -9.937,2.538 -3.002,2.761 -7.294,7.376 -11.944,12.843 -4.881,5.737 -12.323,12.938 -14.983,14.497 -4.66,2.73 -10.508,3.58 -17.078,2.482 z m 84.985,-151.86 c 2.278,-0.193 4.141,-0.537 4.141,-0.764 0,-0.664 -4.211,-1.195 -9.473,-1.195 -5.643,10e-4 -10.555,0.582 -10.555,1.25 0,0.784 9.822,1.222 15.887,0.709 z m -184.05,134.89 c -3.11,-1.778 -7.041,-4.831 -8.328,-6.467 -2.037,-2.59 -4.257,-8.215 -5.044,-12.785 -1.4,-8.13 -0.14,-18.914 2.908,-24.889 3.585,-7.027 10.487,-10.681 21.23,-11.237 13.897,-0.72 21.133,3.841 16.773,10.573 -1.198,1.851 -4.089,3.069 -9.845,4.148 -14.175,2.658 -17.322,4.86 -17.322,12.121 0,4.539 1.643,8.618 4.914,12.197 3.13,3.424 4.292,5.899 4.276,9.105 -0.013,2.476 -1.401,6.089 -2.925,7.613 -1.3,1.3 -3.968,1.148 -6.638,-0.379 z m -242.45,-4.03 c -1.831,-1.131 -4.802,-4.626 -6.574,-7.734 -3.987,-6.991 -7.181,-23.655 -7.177,-37.439 0.005,-17.198 4.488,-31.83 13.379,-43.671 3.016,-4.016 9.384,-10.247 13.302,-13.014 11.702,-8.268 37.117,-11.117 54.484,-6.11 2.931,0.845 7.792,3.052 13.532,6.144 15.752,8.483 30.842,14.644 42.399,17.312 9.907,2.286 18.548,0.979 30.553,-4.621 7.939,-3.704 13.625,-7.742 20.044,-14.231 6.493,-6.565 8.336,-7.589 11.922,-6.624 3.192,0.86 4.188,2.279 4.145,5.91 -0.111,9.526 -15.741,25.253 -31.283,31.476 -16.774,6.717 -35.955,6.273 -58.168,-1.346 -12.468,-4.277 -30.96,-13.034 -34.986,-16.57 -2.408,-2.115 -4.622,-2.968 -9.68,-3.73 -7.261,-1.094 -18.634,0.161 -26.886,2.968 -7.256,2.468 -10.845,5.156 -15.809,11.842 -4.148,5.586 -7.074,10.647 -9.148,15.827 -5.073,12.67 -5.466,17.798 -2.356,30.791 3.912,16.349 4.693,20.529 4.773,25.534 0.068,4.27 -0.08,5.178 -1.058,6.496 -1.398,1.884 -3.209,2.149 -5.409,0.79 z m 516.72,-1.328 c 0,-1.688 6.025,-5.881 18.404,-12.808 15.904,-8.899 17.208,-10.624 20.863,-27.616 2.443,-11.356 3.178,-18.353 2.758,-26.253 -0.886,-16.651 -5.232,-25.784 -15.613,-32.816 -3.251,-2.202 -7.521,-5.928 -12.068,-10.533 -6.894,-6.98 -9.453,-8.857 -13.262,-9.729 -1.042,-0.238 -11.76,-0.451 -23.817,-0.472 -20.798,-0.037 -22.034,-0.094 -24.088,-1.121 -6.19,-3.095 0.216,-6.998 8.119,-4.947 4.974,1.291 14.024,1.969 26.289,1.969 17.763,0.001 19.884,0.724 30.164,10.285 7.113,6.616 12.956,11.487 15.906,13.262 3.736,2.248 11.638,20.678 12.92,30.134 1.164,8.583 -2.469,32.206 -7.145,46.459 -1.381,4.208 -2.095,5.536 -3.929,7.308 -5.197,5.021 -26.444,16.014 -33.517,17.34 -1.589,0.298 -1.985,0.206 -1.985,-0.464 z m -251.43,-0.756 c -3.298,-0.804 -5.242,-4.999 -5.196,-11.218 0.038,-5.169 0.253,-5.985 2.115,-8 2.539,-2.75 5.752,-3.401 16.614,-3.369 11.098,0.033 17.032,1.066 23.647,4.114 7.489,3.453 9.243,8.557 3.74,10.887 -0.803,0.339 -7.316,0.758 -15.208,0.977 -8.166,0.226 -14.679,0.652 -15.948,1.041 -1.185,0.364 -3.001,1.574 -4.06,2.704 -1.659,1.772 -3.913,3.388 -4.45,3.19 -0.094,-0.034 -0.658,-0.181 -1.254,-0.326 z m 258.24,-23.365 c -0.646,-1.044 1.745,-4.708 6.556,-10.046 8.347,-9.262 9.113,-10.829 9.009,-18.434 -0.078,-5.656 -1.407,-16.627 -2.942,-24.287 -1.838,-9.17 -4.052,-12.135 -12.625,-16.909 -5.773,-3.215 -10.398,-7.188 -9.894,-8.5 0.193,-0.504 0.808,-0.915 1.366,-0.915 1.606,0 7.021,2.001 11.772,4.35 7.532,3.725 10.657,7.758 12.673,16.358 2.426,10.35 4.066,33.847 2.767,39.65 -0.802,3.584 -3.794,8.296 -7.969,12.55 -4.743,4.833 -9.759,7.728 -10.713,6.184 z m -352.63,-7.103 c -2.925,-0.624 -3.307,-0.969 -2.073,-1.872 1.66,-1.214 8.823,-1.964 23.393,-2.45 18.953,-0.632 25.706,-2.066 28.619,-6.078 1.049,-1.445 1.05,-1.527 0.077,-4.391 -1.183,-3.48 -0.873,-4.695 1.194,-4.684 1.808,0.01 2.495,0.421 3.319,1.986 1.633,3.102 -0.281,9.731 -3.7,12.82 -2.459,2.221 -4.029,2.707 -12.457,3.856 -7.323,0.998 -34.778,1.58 -38.372,0.813 z m 268.15,-21.108 c -7.957,-1.461 -10.997,-2.669 -14.657,-5.82 -3.91,-3.366 -6.347,-9.618 -5.156,-13.228 1.892,-5.733 5.466,-5.701 16.988,0.154 8.292,4.213 9.886,3.938 19.063,-3.296 16.294,-12.843 19.446,-14.304 32.315,-14.973 14.643,-0.762 28.909,3.209 35.395,9.853 4.363,4.468 5.131,10.263 1.828,13.799 -2.752,2.946 -7.623,2.113 -13.865,-2.372 -10.335,-7.425 -24.733,-8.129 -34.113,-1.669 -3.448,2.375 -5.922,5.677 -7.992,10.666 -1.853,4.466 -3.742,6.589 -6.561,7.371 -3.391,0.942 -17.03,0.658 -23.245,-0.484 z m -188.92,-38.62 c -7.121,-4.136 -21.203,-11.941 -24.9,-13.799 -23.324,-11.724 -49.226,-14.393 -77.429,-7.98 -14.809,3.367 -24.493,3.004 -29.903,-1.123 -5.155,-3.931 -4.284,-12.447 2.283,-22.325 11.265,-16.945 34.951,-27.355 67.971,-29.873 22.439,-1.711 40.976,2.211 57.842,12.241 10.504,6.246 25.606,18.935 29.478,24.769 3.94,5.937 4.515,12.259 1.649,18.157 -2.445,5.033 -14.85,16.576 -21.355,19.872 -3.18,1.612 -2.97,1.609 -5.635,0.061 z m 8.803,-23.25 c 1.344,-1.344 1.932,-2.42 1.932,-3.533 0,-3.19 -7.25,-11.071 -14.939,-16.238 -12.601,-8.469 -33.64,-17.953 -35.563,-16.031 -0.641,0.642 -3.809,15.191 -3.809,17.495 0,2.672 1.48,3.869 5.421,4.387 5.859,0.771 10.898,2.745 25.481,9.984 11.003,5.463 13.37,6.31 16.92,6.056 2.155,-0.154 2.968,-0.532 4.556,-2.12 z m -117.1,-13.95 c 5.762,-1.799 9.399,-4.904 7.884,-6.73 -0.891,-1.073 -5.556,-1.063 -8.728,0.018 -4.12,1.403 -8.8,6.183 -7.738,7.901 0.444,0.719 4.088,0.214 8.582,-1.189 z m -44.259,20.789 c -0.199,-0.198 -0.361,-1.055 -0.361,-1.902 0,-2.337 2.694,-3.845 6.192,-3.466 1.471,0.159 3.016,0.631 3.433,1.049 0.652,0.651 0.503,0.955 -1.052,2.141 -2.883,2.199 -7.079,3.312 -8.212,2.178 z m -12.225,-10.784 c -3.29,-0.884 -5.681,-2.216 -7.548,-4.203 -2.543,-2.707 -0.445,-4.318 7.774,-5.97 5.976,-1.201 22.019,-3.667 22.263,-3.422 0.11,0.11 -3.758,1.956 -8.596,4.101 -8.655,3.839 -11.815,5.621 -11.148,6.287 0.186,0.186 3.03,1 6.32,1.809 3.29,0.809 6.159,1.648 6.375,1.864 0.74,0.741 -12.433,0.343 -15.441,-0.466 z m 269.4,-28.161 c -0.515,-23.617 2.164,-36.312 8.337,-39.505 1.738,-0.899 3.148,-0.491 3.148,0.911 0,0.558 -1.105,3.15 -2.456,5.761 -3.202,6.187 -5.164,14.114 -7.003,28.284 -0.791,6.098 -1.536,11.185 -1.656,11.305 -0.12,0.12 -0.287,-2.92 -0.37,-6.757 z m -243.99,-16.37 c 0,-3.422 10.867,-15.685 23.979,-27.062 11.468,-9.95 19.458,-14.473 34.112,-19.311 12.117,-4 22.605,-5.964 37.448,-7.013 2.381,-0.168 6.096,-0.444 8.254,-0.613 6.853,-0.537 34.833,-0.327 40.558,0.305 8.743,0.965 12.842,2.618 9.01,3.634 -1.975,0.523 -13.522,0.547 -28.863,0.06 -22.082,-0.702 -42.214,1.583 -60.622,6.882 -18.328,5.275 -29.461,12.52 -49.261,32.055 -7.583,7.481 -12.964,12.062 -14.169,12.062 -0.245,0 -0.446,-0.45 -0.446,-0.999 z m 156.24,-6.521 c -0.686,-11.734 -3.231,-18.824 -10.869,-30.274 -4.066,-6.094 -5.052,-8.179 -4.382,-9.264 0.616,-0.997 4.275,1.339 7.42,4.737 3.596,3.884 6.917,10.457 8.512,16.848 1.298,5.2 1.416,11.211 0.39,19.79 l -0.648,5.413 -0.423,-7.249 z m 192.38,4.678 c -0.578,-1.265 -1.784,-4.746 -2.68,-7.734 -2.774,-9.254 -6.915,-14.225 -18.079,-21.703 -7.805,-5.228 -14.568,-8.572 -19.602,-9.692 -3.496,-0.778 -5.696,-0.888 -12.141,-0.608 -15.225,0.663 -37.184,3.511 -48.636,6.309 -7.404,1.808 -9.42,1.98 -10.33,0.884 -2.579,-3.108 8.09,-6.352 29.444,-8.953 25.731,-3.135 37.677,-3.689 44.116,-2.047 4.302,1.097 14.233,6.038 20.727,10.313 9.004,5.927 15.775,13.587 18.366,20.78 1.748,4.853 2.019,14.752 0.404,14.752 -0.296,0 -1.011,-1.036 -1.589,-2.301 z m -367.32,-4.009 c 0.816,-3.281 12.499,-17.417 19.917,-24.098 21.852,-19.683 50.921,-35.245 77.095,-41.273 16.026,-3.691 30.354,-5.232 50.793,-5.465 21.74,-0.247 31.301,0.607 49.529,4.426 20.182,4.229 32.727,5.33 60.625,5.32 23.601,-0.008 30.754,-0.409 54.942,-3.079 25.141,-2.776 39.43,-2.357 45.994,1.349 2.717,1.534 4.617,4.314 4.617,6.757 0,1.834 -0.045,1.873 -1.76,1.531 -0.967,-0.192 -3.389,-1.434 -5.382,-2.758 -1.993,-1.324 -5.159,-2.93 -7.037,-3.569 -3.151,-1.072 -4.143,-1.137 -12.887,-0.848 -5.21,0.173 -12.396,0.688 -15.968,1.145 -13.228,1.691 -31.31,3.038 -47.324,3.525 -9.059,0.275 -16.632,0.401 -16.83,0.279 -0.197,-0.123 -4.478,-0.264 -9.512,-0.315 -17.122,-0.172 -35.562,-2.146 -53.269,-5.702 -28.437,-5.711 -55.459,-5.943 -82.277,-0.707 -37.878,7.395 -69.531,23.765 -92.216,47.691 -7.116,7.505 -15.528,15.275 -17.874,16.51 l -1.56,0.821 z"
         id="imagebot_4" />
    </g>
    <title
       id="title51">Layer 1</title>
  </g>
  <metadata
     id="metadata54">image/svg+xmlOpenclipartTrollface2011-04-03T12:59:21http://encyclopediadramatica.com/Trollfacehttps://openclipart.org/detail/130795/trollface-by-ronesronesfacememetrolltrollface</metadata>
  <path
     style="fill:#ffffff;stroke-width:0.590068"
     d="m 467.33398,589.74815 c -4.94195,-0.64963 -11.89695,-2.47262 -41.56411,-10.89444 -44.78947,-12.71471 -57.56988,-16.10898 -75.56442,-20.06866 -5.35487,-1.17833 -12.1259,-3.08072 -15.04674,-4.22752 -8.05025,-3.16076 -34.58407,-16.58187 -53.10613,-26.86168 C 255.7925,513.12141 244.38981,507.04283 224.2259,496.86943 204.80713,487.07197 196.58449,482.39606 178.20058,470.69653 150.2018,452.87807 133.83138,439.78448 119.78384,423.97292 102.4753,404.49087 92.906751,389.70958 82.917399,367.0224 76.256503,351.89459 69.33572,339.70104 61.687589,329.61815 c -2.311464,-3.04732 -4.467023,-6.03454 -4.790131,-6.63827 -0.728911,-1.36198 -0.206668,-1.38858 4.174597,-0.2126 3.809912,1.02263 7.080817,1.14355 7.080817,0.26178 0,-1.12332 -3.60114,-3.94419 -8.482875,-6.64486 -2.636512,-1.45856 -6.372019,-3.53989 -8.301127,-4.62518 C 46.092936,308.79088 37.449143,300.21965 33.015374,293.55961 18.310983,271.47189 11.835572,241.97386 17.134336,221.21528 20.275159,208.91071 37.67257,182.1411 50.383658,170.05414 c 6.501626,-6.18239 10.52229,-7.79693 26.030169,-10.45268 5.108285,-0.8748 30.463383,-4.1185 32.193193,-4.1185 0.14331,0 0.26056,-0.2227 0.26056,-0.49489 0,-0.27219 -9.065599,-0.66378 -20.145775,-0.87021 -11.080176,-0.20643 -20.277304,-0.50686 -20.438064,-0.66761 -0.16076,-0.16076 1.153672,-2.09256 2.92096,-4.29289 1.767288,-2.20032 4.091649,-5.28842 5.165242,-6.86243 2.538562,-3.72182 11.172262,-21.58061 16.588103,-34.31246 C 111.5465,64.283752 127.58257,42.14822 153.55252,24.340312 l 10.1111,-6.933301 77.19156,0.0045 c 42.45535,0.0025 85.15748,0.268972 94.8936,0.592162 50.89427,1.689432 90.44032,4.606159 112.97161,8.332243 9.88938,1.635441 16.93395,3.863644 15.80004,4.997558 -0.94811,0.948111 -17.2629,1.304095 -35.54088,0.775493 -31.86315,-0.921488 -51.49489,-2.551443 -74.05355,-6.148406 -19.88505,-3.170658 -21.18173,-3.29472 -38.15047,-3.65011 -22.02505,-0.461289 -36.95032,1.058175 -56.1247,5.713765 -32.29587,7.841523 -57.47392,21.356621 -97.29294,52.225011 -9.9367,7.703109 -21.46066,18.243066 -21.45144,19.619766 0.0168,2.514517 5.12599,-0.611039 18.59209,-11.373812 34.37505,-27.47424 80.17391,-51.750242 109.48096,-58.03113 23.71439,-5.08231 43.64684,-4.728357 94.97766,1.686576 35.95828,4.493792 32.03325,4.271691 83.19961,4.70792 45.02438,0.383865 47.17841,0.452119 53.57623,1.697646 15.70288,3.057035 30.02715,9.467486 48.52035,21.714006 14.5983,9.667247 26.71627,20.450138 31.90691,28.391606 4.42349,6.767763 5.64283,11.462305 7.03352,27.079455 1.1091,12.45513 3.72793,20.80399 9.18384,29.27832 3.55534,5.5223 6.47735,8.96837 16.02666,18.90094 4.30561,4.47841 8.86766,9.5235 10.13796,11.2113 2.63182,3.49675 6.51961,11.09794 7.90745,15.46016 2.77532,8.72323 4.00986,23.82584 3.26095,39.89184 -0.8471,18.1719 -2.23258,22.37329 -21.06573,63.88154 l -7.72842,17.03335 0.54717,55.54503 c 0.88587,89.92274 1.50013,110.21493 4.38173,144.73985 0.39429,4.72414 -0.64518,14.29094 -1.96669,18.10035 -1.79122,5.16342 -7.21509,15.69662 -10.75211,20.8806 -4.45461,6.52882 -14.96998,16.86499 -21.72247,21.35226 -6.46399,4.29557 -16.09183,9.24088 -22.44502,11.52882 -9.4656,3.4088 -20.82221,5.24878 -38.42702,6.2259 -11.99536,0.66578 -44.07136,0.65051 -49.1981,-0.0234 z m 80.9897,-60.24896 c 15.44921,-10.53578 24.77391,-17.16031 27.79584,-19.74697 1.29891,-1.11182 3.1764,-3.65193 4.17219,-5.64469 1.72156,-3.44515 1.80799,-3.95925 1.75883,-10.46224 -0.0556,-7.35647 -0.69873,-13.29431 -1.28397,-11.85464 -0.19789,0.48681 -0.77922,3.64462 -1.29184,7.01736 -1.15715,7.61332 -2.35782,10.37693 -6.33805,14.58835 -4.49698,4.75818 -23.16694,18.37056 -37.77323,27.54067 l -5.13594,3.22445 -5.18873,-0.23524 c -2.8538,-0.12938 -19.12909,-0.76674 -36.16731,-1.41636 -74.64288,-2.84591 -91.53613,-4.79353 -141.32132,-16.29288 -53.02844,-12.24848 -81.25608,-21.37913 -112.70302,-36.45549 -12.03772,-5.77115 -24.91099,-12.90211 -46.61539,-25.82194 -24.72924,-14.72041 -29.97355,-17.71919 -36.97753,-21.14429 -6.14463,-3.00487 -7.25014,-3.3397 -7.84558,-2.37626 -1.84289,2.98185 52.44489,36.00548 87.30802,53.11006 47.46385,23.28675 131.38452,45.63787 189.41188,50.44724 19.93233,1.65202 56.97247,2.96259 97.95131,3.46577 6.16622,0.0757 12.73938,0.19783 14.60703,0.27135 l 3.39573,0.13369 z M 487.10127,512.4537 c 19.96932,-1.83925 30.26379,-5.38987 44.40471,-15.31545 3.00082,-2.1063 8.27932,-6.62032 11.72999,-10.03116 6.06894,-5.99891 8.77279,-9.82487 8.77279,-12.41351 0,-1.01557 -0.24327,-1.16951 -1.32765,-0.84012 -2.01171,0.61107 -4.45667,2.61023 -12.68675,10.37358 -13.66388,12.889 -20.87181,17.34505 -33.2133,20.53297 -12.11723,3.12999 -14.37068,3.28954 -46.2981,3.27811 -27.21905,-0.01 -33.04415,-0.20733 -75.23369,-2.55187 l -45.73028,-2.54131 -24.1928,-10.04189 c -37.50893,-15.56915 -60.81033,-26.66932 -97.65628,-46.52091 -24.64749,-13.2794 -36.35789,-18.71071 -37.62024,-17.44836 -2.22029,2.22028 38.76586,25.419 81.60858,46.19157 30.2526,14.66817 56.59376,25.23946 74.02529,29.708 14.64557,3.75436 35.58199,5.71842 81.42941,7.63893 8.27571,0.34666 17.03822,0.72253 19.47225,0.83526 8.26519,0.38278 45.69736,-0.22581 52.51607,-0.85384 z M 446.6452,489.07344 c 4.96236,-0.30362 6.10609,-0.52755 5.25489,-1.02881 -1.426,-0.83975 -65.80259,-0.89936 -68.35579,-0.0633 -1.49991,0.49117 -0.91429,0.63118 3.83545,0.91699 8.25442,0.49671 51.90166,0.62568 59.26545,0.17512 z m -1.43877,-19.10685 c 41.07789,-2.01764 75.49962,-8.2117 92.30678,-16.61027 10.00428,-4.99916 18.65795,-12.43687 24.25483,-20.84669 8.29697,-12.46695 12.59995,-28.01725 15.42709,-55.75111 1.32342,-12.98265 1.53161,-63.21736 0.31545,-76.11879 -2.35248,-24.95606 -5.16195,-38.30967 -9.26758,-44.04958 -3.37978,-4.72511 -4.89265,-8.40787 -6.41743,-15.62181 -1.97781,-9.35728 -3.35279,-11.72686 -6.80469,-11.72686 -3.26055,0 -4.8377,4.20357 -7.18815,19.15858 -2.11637,13.46562 -2.98512,16.97893 -5.59878,22.64201 -5.69556,12.34074 -17.1295,22.37896 -36.58491,32.11905 -24.38499,12.20804 -52.0412,16.75068 -92.80154,15.24301 -38.61832,-1.42844 -76.51201,-9.43278 -126.36941,-26.69318 C 211.92693,265.90167 158.54982,242.26661 137.7431,225.852 c -5.56403,-4.38951 -7.94079,-7.48425 -9.15043,-11.91465 -1.35104,-4.94827 -2.45208,-7.07039 -4.04494,-7.79614 -3.66233,-1.66867 -7.81753,4.07507 -10.73519,14.83932 -3.75535,13.85468 -8.21302,18.17654 -26.482452,25.67557 -8.851973,3.63345 -10.710304,5.81054 -7.952491,9.31654 2.04189,2.59584 6.911026,3.96357 15.965905,4.4848 10.613428,0.61094 11.829218,1.19907 14.849978,7.18365 2.52839,5.00913 3.47796,9.94018 2.69738,14.0072 -0.77456,4.03566 -0.1995,6.0168 2.96593,10.2179 4.67417,6.20347 8.29074,11.82112 18.37422,28.54082 20.79969,34.48854 31.44134,49.06931 49.19008,67.39837 25.5062,26.34014 62.2788,52.15613 89.78047,63.02984 30.53603,12.07346 70.33645,18.7554 118.6037,19.91192 10.94493,0.26225 41.16276,-0.17944 53.40117,-0.78055 z M 78.430084,307.51064 c -0.384949,-1.00316 -7.255904,-5.70371 -17.011422,-11.63784 -13.020253,-7.92002 -18.67052,-16.56431 -21.309449,-32.60113 -1.323425,-8.04248 -1.986111,-26.64136 -1.496341,-41.99611 0.402527,-12.61959 0.545933,-13.90269 2.044422,-18.29211 2.965214,-8.68581 11.46539,-22.67268 16.775891,-27.60439 6.377627,-5.92273 11.241322,-6.95347 50.393855,-10.6797 7.70342,-0.73316 14.20478,-1.53156 14.44747,-1.77425 0.24268,-0.24269 -11.10519,-0.35423 -25.217509,-0.24786 l -25.658754,0.19339 -4.720545,1.65534 c -5.554705,1.94786 -8.948168,3.81635 -12.946955,7.12879 -6.046327,5.00855 -14.762062,18.94129 -17.383163,27.78827 -2.372529,8.00797 -3.070532,27.36763 -1.807891,50.14325 1.62295,29.27488 5.902492,39.58873 20.336646,49.01206 9.067439,5.91968 22.067257,11.64492 23.474552,10.33841 0.254042,-0.23584 0.289682,-0.8776 0.07919,-1.42612 z m 347.599126,-0.56916 c 2.92083,-1.33695 4.93445,-3.07972 11.50633,-9.95859 16.05699,-16.80709 21.01285,-21.63599 22.6184,-22.03895 1.2142,-0.30475 2.15527,-0.0252 3.83611,1.13966 3.19654,2.2152 4.37979,2.00075 6.9485,-1.25935 5.27487,-6.69466 5.88392,-6.67191 21.1783,0.79149 4.86806,2.37553 11.10803,5.52013 13.8666,6.98799 4.79576,2.55189 8.26095,3.41613 8.26095,2.06035 0,-1.22641 -6.83019,-7.8329 -10.71683,-10.36584 -2.16208,-1.40903 -6.14505,-3.26951 -8.85103,-4.1344 -2.70598,-0.86489 -6.11486,-2.37586 -7.57527,-3.35769 -1.46042,-0.98185 -7.56763,-6.59173 -13.57157,-12.4664 -12.42907,-12.16147 -14.80792,-14.2331 -26.25803,-22.86687 -9.55893,-7.20776 -12.18291,-9.76634 -13.78632,-13.44269 -2.45344,-5.62537 -3.50523,-22.19256 -1.63814,-25.80312 2.79993,-5.41446 13.36775,-9.97561 31.06126,-13.40625 4.05672,-0.78656 14.90571,-2.3874 24.10886,-3.55739 9.20315,-1.17 18.842,-2.52735 21.41965,-3.01632 15.83756,-3.00433 21.85162,-7.38059 19.94446,-14.51299 -0.96982,-3.62692 -9.96835,-12.50544 -15.31768,-15.11341 -7.39257,-3.6041 -9.8205,-3.95585 -27.14263,-3.93225 -12.48785,0.017 -16.82509,0.23735 -21.53749,1.09411 -14.35037,2.60906 -23.02528,6.74584 -35.21764,16.79414 -9.43616,7.77677 -13.54246,9.59754 -24.08493,10.6794 -6.11126,0.62713 -10.14707,2.07384 -10.84277,3.88678 -1.45915,3.80249 0.91798,6.81286 10.20996,12.92976 4.17583,2.74895 8.13551,5.68851 8.79927,6.53235 1.63383,2.07707 2.3355,5.96002 3.05749,16.91964 0.71698,10.88374 2.02945,16.63591 5.32672,23.34539 3.25853,6.63067 7.30417,10.70898 12.06836,12.16582 4.81855,1.47346 6.94926,3.23833 9.09588,7.53409 2.64526,5.29363 2.52081,8.48727 -0.5653,14.50633 -4.8657,9.48995 -15.591,21.77492 -21.56128,24.69671 -5.71288,2.79582 -6.6045,2.6697 -14.98834,-2.12022 -3.74216,-2.138 -7.03126,-1.10145 -8.62752,2.71894 -1.64872,3.94594 -0.71023,9.29403 2.26413,12.90245 3.3073,4.01232 8.61676,5.68783 17.27045,5.45004 4.96908,-0.13655 6.45964,-0.418 9.44109,-1.78271 z M 318.62262,291.5615 c 1.76848,-1.76848 2.87732,-5.78134 2.50653,-9.07101 -0.27574,-2.44634 -1.16869,-4.02998 -5.38676,-9.55344 -2.46737,-3.23094 -3.3013,-5.89025 -3.3013,-10.52742 0,-2.99494 0.25047,-3.87186 1.54546,-5.41087 2.21766,-2.63555 4.11539,-3.43986 12.664,-5.36739 8.9772,-2.02416 11.35126,-2.92933 12.55279,-4.78607 3.96687,-6.1301 -0.75151,-10.42117 -12.07567,-10.98205 -16.30057,-0.80735 -25.58272,4.96551 -28.54891,17.75546 -3.28809,14.17797 -0.0994,28.63818 7.63025,34.60153 6.39034,4.93011 9.88432,5.87055 12.41361,3.34126 z M 74.668918,286.62561 c 1.190764,-1.4966 1.266458,-2.08118 0.974168,-7.52337 -0.194434,-3.62019 -1.150592,-9.54948 -2.474021,-15.34177 -3.634933,-15.90919 -3.81524,-16.9526 -3.82581,-22.13942 -0.01193,-5.85026 1.254378,-10.99933 4.631431,-18.83248 2.915798,-6.76325 9.032969,-15.96101 13.296772,-19.99296 5.953298,-5.62959 15.518892,-8.81109 28.200582,-9.37946 10.34661,-0.46371 13.64625,0.24787 19.65357,4.23841 10.38146,6.89621 30.23662,15.42112 44.11044,18.93905 27.72246,7.02947 50.6348,2.1612 68.54366,-14.5637 12.10705,-11.30665 15.2944,-23.40599 6.59576,-25.03787 -3.23189,-0.6063 -5.05534,0.46434 -12.22754,7.17949 -7.45117,6.97635 -12.43818,10.47814 -19.70049,13.83333 -14.3159,6.61397 -23.1925,7.05693 -38.93624,1.94303 -7.94916,-2.58205 -12.95809,-4.75378 -29.20838,-12.66391 -18.33427,-8.92456 -21.37893,-9.87205 -33.33885,-10.3749 -13.66768,-0.57466 -26.333353,1.57877 -34.944683,5.94133 -9.082548,4.60128 -18.180623,14.41415 -23.686377,25.5473 -4.841861,9.79069 -6.528642,17.2714 -6.961811,30.87493 -0.658206,20.67079 3.461855,38.04189 10.902441,45.9671 2.390023,2.5457 3.153785,3.00856 4.964433,3.00856 1.628022,0 2.448677,-0.38814 3.430945,-1.62269 z m 520.414822,-2.30694 c 5.46044,-2.23981 15.50251,-7.4291 20.65238,-10.67224 7.10513,-4.47447 8.6638,-6.97116 11.69722,-18.73699 4.05017,-15.70926 6.18209,-33.21546 4.93244,-40.50267 -1.03073,-6.01085 -3.84825,-14.11009 -7.37839,-21.20989 -2.86531,-5.76272 -3.3494,-6.37838 -7.77609,-9.88985 -2.5963,-2.05952 -7.73421,-6.43976 -11.41753,-9.73389 -3.68334,-3.29413 -7.92087,-6.85947 -9.41673,-7.92299 -4.67666,-3.32498 -7.00676,-3.72272 -25.19106,-4.30002 -9.08705,-0.28849 -17.98233,-0.80513 -19.76728,-1.14809 -1.78496,-0.34296 -5.12214,-0.78028 -7.41595,-0.97182 -7.0528,-0.58894 -10.17559,2.20609 -5.96577,5.3396 1.60988,1.19829 2.4502,1.24918 25.37293,1.53669 21.97255,0.27559 23.8781,0.3816 26.03296,1.44818 1.27878,0.63295 5.65645,4.31567 9.72816,8.18382 4.07171,3.86815 9.95556,8.98951 13.0752,11.38078 6.4236,4.9238 9.76722,9.16344 12.08666,15.32566 3.04422,8.08769 3.99098,21.23801 2.32492,32.29139 -1.18515,7.86298 -3.65588,18.69181 -5.18858,22.74095 -1.75947,4.6483 -6.25992,8.92988 -14.28909,13.59419 -13.34676,7.7534 -15.62387,9.14427 -18.39861,11.23799 -1.69392,1.27817 -2.92408,2.70454 -3.04226,3.5275 -0.18697,1.30194 -0.0679,1.35733 2.06523,0.96032 1.24502,-0.23171 4.52067,-1.34709 7.27924,-2.47862 z M 339.6611,283.22179 c 1.71797,-1.46643 4.06304,-2.90691 5.21128,-3.20107 1.14823,-0.29415 8.45309,-0.81253 16.23302,-1.15195 15.78794,-0.68878 16.94634,-1.00301 17.31346,-4.69649 0.2794,-2.81097 -1.70024,-5.06108 -6.55498,-7.45059 -6.45547,-3.17738 -11.37156,-4.0239 -23.72367,-4.08505 -11.91696,-0.059 -14.45815,0.41836 -17.14008,3.21972 -1.70713,1.78316 -1.7421,1.9462 -1.7421,8.12285 0,6.92927 0.95584,9.68754 3.86775,11.16121 2.31538,1.17177 3.22907,0.90353 6.53532,-1.91863 z m 257.48788,-21.9759 c 3.33601,-1.67707 10.59615,-9.67175 12.74152,-14.03067 l 2.01018,-4.08433 -0.10485,-9.15746 c -0.17626,-15.38558 -2.61837,-32.12569 -5.51496,-37.80352 -1.90314,-3.73054 -5.65723,-6.91632 -11.46013,-9.72532 -7.92532,-3.83641 -12.7185,-4.79958 -12.7185,-2.55573 0,1.29905 5.08214,5.60237 10.07526,8.53126 6.35379,3.72705 9.50782,6.85376 11.03733,10.94176 2.57994,6.89548 5.31414,29.17397 4.26164,34.72391 -0.74071,3.90567 -1.99797,5.93503 -7.83064,12.63947 -8.8915,10.22046 -9.83868,14.21146 -2.49685,10.52063 z m -315.19089,-7.46214 c 5.70928,-1.05523 7.70377,-1.88117 9.61408,-3.98134 3.25044,-3.57348 4.61251,-9.52397 2.92639,-12.78456 -0.80261,-1.55207 -1.31766,-1.87569 -2.98522,-1.87569 -1.10839,0 -2.17542,0.25915 -2.37118,0.57589 -0.19575,0.31674 -0.0197,2.20384 0.3913,4.19356 l 0.74722,3.61767 -1.87692,1.67703 c -3.4399,3.07354 -10.07557,4.28511 -27.2986,4.98428 -11.87056,0.48189 -20.9139,1.34908 -22.73862,2.18048 -1.69248,0.77115 -1.90661,2.02245 -0.42155,2.46344 0.56794,0.16865 9.5296,0.21814 19.9148,0.10997 14.25415,-0.14845 20.16065,-0.43295 24.0983,-1.16073 z m 248.46752,-19.20656 c 3.57653,-0.8295 5.15845,-2.38354 7.71655,-7.58059 2.99983,-6.09447 5.79408,-9.41924 9.70531,-11.548 9.90106,-5.38883 22.04475,-4.18079 32.92064,3.27492 6.81913,4.6747 12.60425,4.49473 14.67299,-0.45646 1.16257,-2.78243 1.01912,-4.80603 -0.5849,-8.25077 -2.45849,-5.27979 -8.67379,-9.25651 -18.60215,-11.90214 -4.94983,-1.319 -6.91389,-1.51486 -15.6893,-1.5646 -15.50458,-0.0879 -18.36752,0.95771 -33.06936,12.07737 -9.52979,7.20781 -13.271,9.23798 -15.701,8.52013 -0.76199,-0.2251 -4.30627,-1.75936 -7.87618,-3.40948 -8.2347,-3.8063 -12.19804,-4.32999 -14.45667,-1.91021 -1.25328,1.34271 -1.4704,2.12777 -1.44345,5.21928 0.0391,4.48274 1.45703,7.42884 5.26479,10.93871 3.10694,2.86388 5.11245,3.82443 10.78593,5.16595 7.36808,1.74222 21.65929,2.51537 26.3568,1.42589 z M 328.963,192.79394 c 1.78496,-1.20196 6.22038,-5.11495 9.85649,-8.69554 7.81737,-7.69798 9.19491,-10.16331 9.2536,-16.56074 0.0581,-6.33015 -2.14963,-10.35634 -9.59992,-17.50731 -12.34233,-11.84647 -27.49501,-21.59806 -40.14711,-25.8369 -8.94174,-2.99576 -15.79135,-4.14294 -26.99471,-4.52112 -26.30849,-0.88807 -51.90387,5.1218 -68.3479,16.04831 -7.50373,4.98597 -14.86772,13.69749 -17.87745,21.14882 -3.26142,8.07448 -2.08845,13.53647 3.57812,16.66161 2.83561,1.56386 3.673,1.72058 10.24425,1.91733 6.30355,0.18873 8.48307,-0.0384 18.29211,-1.90612 17.83411,-3.39578 27.69469,-4.05268 40.22001,-2.67938 17.4079,1.90863 28.97546,6.19872 52.87538,19.61003 l 11.1513,6.25749 2.12523,-0.87555 c 1.16887,-0.48156 3.58564,-1.85898 5.3706,-3.06093 z M 173.52301,177.74303 c 0.99725,-0.51689 2.18212,-1.38434 2.63304,-1.92767 0.711,-0.8567 0.67073,-1.09689 -0.30328,-1.8091 -1.52483,-1.11499 -6.7931,-1.05423 -8.43715,0.0973 -1.67164,1.17086 -1.86813,4.77659 -0.27881,5.11633 1.40947,0.30128 4.20118,-0.34432 6.3862,-1.47686 z m -3.28835,-9.21393 c 0,-0.44721 -4.47199,-1.8354 -10.79444,-3.35079 -0.90661,-0.2173 -1.55126,-0.69532 -1.43256,-1.06226 0.11871,-0.36694 4.53761,-2.65865 9.8198,-5.09268 8.51932,-3.92571 9.37384,-4.44562 7.56632,-4.60355 -2.17656,-0.19017 -18.72138,2.37254 -23.92384,3.70568 -3.57375,0.91578 -6.01814,2.33218 -6.01814,3.4872 0,2.6904 5.6136,6.14986 11.13053,6.85935 4.88489,0.6282 13.65233,0.66484 13.65233,0.0571 z m 255.81165,-32.85885 c 1.99013,-14.03365 3.82662,-21.44832 7.05896,-28.49992 2.83507,-6.18494 2.92371,-7.743845 0.44033,-7.743845 -3.67026,0 -7.47459,6.736135 -8.99774,15.931845 -1.27864,7.71949 -1.48011,32.36652 -0.25455,31.14097 0.13928,-0.13928 0.92813,-5.01236 1.753,-10.82905 z m -243.0662,-12.55478 c 1.26571,-0.92617 6.68255,-5.85711 12.03742,-10.95763 20.59697,-19.618654 30.24576,-25.920222 47.79552,-31.214992 19.76835,-5.964123 36.91554,-7.773474 68.15287,-7.191413 19.80445,0.369026 23.60273,0.130118 23.60273,-1.484591 0,-4.234856 -50.38631,-4.795265 -75.23369,-0.836768 -11.74522,1.87116 -25.72896,6.094306 -35.10906,10.603082 -10.236,4.920183 -18.33178,11.168963 -31.28676,24.148892 -9.16735,9.18501 -13.26339,14.46423 -13.26339,17.09468 0,1.93496 0.47108,1.91197 3.30436,-0.16126 z m 154.67685,-11.00252 c 0.36396,-11.18031 -0.22186,-14.275861 -4.25684,-22.49374 -3.80666,-7.752841 -10.6588,-14.300549 -12.76321,-12.196143 -0.82239,0.822396 0.0938,2.871331 4.09824,9.165028 7.59724,11.940448 9.85293,18.124065 10.87802,29.820255 0.88568,10.10557 1.6256,8.5505 2.04379,-4.2954 z m 193.47508,10.54963 c 0.57854,-2.30509 -0.17676,-10.24307 -1.28932,-13.55042 -2.27798,-6.77181 -9.8001,-15.390484 -18.34235,-21.016247 -5.6392,-3.713865 -16.19673,-8.971437 -20.54247,-10.230005 -6.7171,-1.945337 -32.90289,-0.284732 -55.78263,3.537529 -13.8381,2.311775 -20.06092,4.738613 -18.50645,7.217336 0.87493,1.39514 4.3203,1.293412 11.2592,-0.332426 16.56808,-3.882035 49.4536,-7.2909 57.67126,-5.978123 6.77085,1.081648 15.88487,5.59505 25.10913,12.434424 8.85289,6.564022 11.97037,10.919722 15.66269,21.883782 2.58753,7.68347 3.92237,9.37529 4.76094,6.03415 z M 163.8029,117.60874 c 1.42797,-1.03402 7.90693,-7.08103 14.39768,-13.43778 13.23033,-12.957185 18.08018,-17.030202 28.32328,-23.786547 8.67793,-5.723963 25.68536,-14.164059 35.99415,-17.862435 13.58001,-4.871955 31.73349,-8.998285 48.38559,-10.998164 3.24538,-0.389762 12.40619,-0.706834 20.35735,-0.704605 16.52836,0.0047 24.70724,0.811337 43.96008,4.33589 24.50991,4.486949 36.45168,5.492916 65.49757,5.517478 23.18516,0.01961 35.46607,-0.644252 58.78114,-3.177472 6.04209,-0.656483 15.07013,-1.246383 20.06231,-1.310889 10.0362,-0.12968 10.7984,0.06322 18.15578,4.594854 1.82179,1.122103 4.17533,2.21132 5.23008,2.420481 1.86017,0.368882 1.91765,0.320535 1.91551,-1.611187 -0.003,-2.568012 -1.70453,-5.326763 -4.25987,-6.906051 -6.24494,-3.859588 -21.17918,-4.254214 -49.72916,-1.314054 -21.80255,2.245289 -43.32756,3.187319 -61.95716,2.711518 -22.56914,-0.576418 -29.54419,-1.297068 -49.03302,-5.066007 -17.41221,-3.367342 -23.79049,-4.099519 -39.18217,-4.497818 -28.40113,-0.734951 -53.00265,2.008974 -72.87341,8.127924 -24.08781,7.417534 -52.85872,24.407774 -69.82553,41.234435 -9.67954,9.599579 -19.96813,23.610489 -17.33783,23.610489 0.29772,0 1.70965,-0.84602 3.13763,-1.88006 z"
     id="path519" />
  <path
     style="fill:#ffffff;stroke-width:0.590068"
     d="m 318.93184,173.0846 c -1.13588,-0.32121 -7.50862,-3.18707 -14.16164,-6.36856 -13.8979,-6.64601 -17.26492,-7.96656 -22.74602,-8.92105 -4.12462,-0.71828 -6.16732,-2.04885 -6.16732,-4.01728 0,-1.20607 1.85021,-10.49819 2.9979,-15.05611 0.70704,-2.80789 0.71033,-2.81075 2.78887,-2.42081 5.3238,0.99875 23.20618,9.59632 31.9776,15.37433 5.6606,3.72881 13.00972,10.72877 14.79286,14.09003 1.24768,2.3519 1.30351,2.7645 0.56161,4.15074 -1.76228,3.29286 -5.46928,4.46237 -10.04386,3.16871 z"
     id="path659" />
  <path
     style="fill:#ffffff;stroke-width:0.590068"
     d="m 202.68841,158.18354 c 0,-3.05064 7.20301,-7.42113 12.23078,-7.42113 7.20751,0 3.05633,4.94359 -6.15563,7.33065 -4.44487,1.15178 -6.07515,1.17606 -6.07515,0.0905 z"
     id="path661" />
  <path
     style="fill:#ffffff;stroke-width:0.590068"
     d="m 482.97079,156.1243 -3.24538,-0.34645 2.36028,-0.43598 c 3.04363,-0.56222 13.81424,-0.5019 15.31688,0.0858 2.39132,0.93524 -7.65417,1.42015 -14.43178,0.69665 z"
     id="path663" />
  <path
     style="fill:#ffffff;stroke-width:0.590068"
     d="m 543.81848,343.25669 c -1.51563,-2.83199 -3.00569,-17.95255 -3.01492,-30.59432 -0.007,-9.01829 0.36816,-12.19106 1.39993,-11.8523 2.76234,0.90696 12.16555,27.3249 12.16555,34.17864 0,2.67953 -0.22345,3.19173 -2.20942,5.06475 -4.31,4.06485 -7.27138,5.2021 -8.34114,3.20323 z"
     id="path665" />
  <path
     style="fill:#ffffff;stroke-width:0.590068"
     d=""
     id="path667" />
  <path
     style="fill:#ffffff;stroke-width:0.590068"
     d="m 508.43361,356.82451 c -1.14838,-0.38279 -1.84332,-2.73529 -2.73205,-9.24847 -0.44478,-3.25961 -1.27411,-8.58188 -1.84296,-11.82726 -1.20417,-6.86995 -0.92132,-8.65921 1.76731,-11.17965 2.07152,-1.94192 11.66939,-7.38167 15.21791,-8.62499 2.83697,-0.99401 3.70296,-0.29206 5.055,4.09751 1.52296,4.94449 1.32818,18.21542 -0.35928,24.47847 -1.69756,6.30051 -3.4511,9.35903 -5.68949,9.92353 -8.10454,2.04389 -10.76369,2.59845 -11.41644,2.38086 z"
     id="path669" />
  <path
     style="fill:#ffffff;stroke-width:0.590068"
     d="m 442.69988,360.30579 c -0.86733,-1.03077 -1.72639,-2.72928 -1.909,-3.77447 -0.84454,-4.83367 -2.00335,-17.83936 -1.61942,-18.17524 0.23613,-0.20657 2.4208,-0.69499 4.85483,-1.08538 2.43403,-0.39039 12.5242,-2.01778 22.42259,-3.61643 9.89839,-1.59864 18.17489,-2.90987 18.39221,-2.91384 0.94711,-0.0173 5.80058,18.77263 5.80058,22.45662 0,2.77366 -1.09169,3.69124 -6.19571,5.20752 -7.02126,2.08585 -14.83967,3.04906 -27.75544,3.4194 l -12.41367,0.35595 z"
     id="path671" />
  <path
     style="fill:#ffffff;stroke-width:0.590068"
     d="m 379.70886,347.23514 v -15.37528 l 1.91772,0.32845 c 1.05475,0.18064 8.15769,1.12767 15.78433,2.10451 12.75371,1.63353 18.28556,2.44058 22.57501,3.29349 0.89518,0.178 1.90959,0.85056 2.25426,1.49457 0.70114,1.31009 3.88998,17.19582 4.18749,20.8607 l 0.19161,2.36027 -23.45521,0.15429 -23.45521,0.15429 z"
     id="path673" />
  <path
     style="fill:#ffffff;stroke-width:0.590068"
     d="m 347.25511,361.96076 c -14.62827,-1.00318 -27.31651,-3.4269 -42.15653,-8.05278 -5.66497,-1.76587 -7.4881,-2.61597 -9.29358,-4.33348 -2.13901,-2.03479 -2.24609,-2.31442 -2.24609,-5.86518 0,-3.73007 3.58391,-21.35117 4.91941,-24.18741 0.90895,-1.93035 3.46585,-2.14881 10.2752,-0.87791 5.4331,1.01404 52.58386,11.86935 54.12643,12.46129 0.49339,0.18933 0.90111,0.64775 0.90604,1.0187 0.005,0.37095 0.40069,6.51613 0.87947,13.65595 0.47878,7.13983 0.87304,13.84448 0.87614,14.89922 l 0.006,1.91772 -5.75316,-0.0854 c -3.16424,-0.047 -8.80677,-0.2948 -12.53895,-0.55074 z"
     id="path675" />
  <path
     style="fill:#ffffff;stroke-width:0.590068"
     d="m 267.30088,339.92972 c -2.5963,-1.07993 -8.03968,-3.48881 -12.0964,-5.35308 -12.0055,-5.51714 -17.95429,-7.88401 -24.65314,-9.80886 -3.47899,-0.99965 -7.16816,-2.33253 -8.19815,-2.96195 -3.00611,-1.83701 -10.81986,-10.46918 -14.5438,-16.06711 -5.93386,-8.91998 -8.1464,-15.12075 -7.12742,-19.97507 0.523,-2.49154 0.5726,-2.5335 3.18658,-2.69611 2.04398,-0.12715 5.3723,0.77895 14.45667,3.93567 6.49075,2.25547 20.56387,7.13543 31.27361,10.84436 21.03696,7.28538 25.78926,9.13677 29.63841,11.54642 3.89675,2.43945 4.06847,3.42457 2.24784,12.89539 -2.23458,11.6242 -3.72678,17.35195 -4.84143,18.58362 -1.40464,1.55211 -3.96495,1.29362 -9.34277,-0.94328 z"
     id="path677" />
  <path
     style="fill:#ffffff;stroke-width:0.590068"
     d="m 174.02928,303.06903 c -28.53135,-14.85799 -39.42449,-23.08246 -44.80326,-33.82706 -5.27789,-10.54312 -7.86408,-22.06037 -5.48781,-24.43932 3.08934,-3.09285 12.77756,1.05151 42.61979,18.23163 8.73983,5.03151 16.63112,9.77579 17.5362,10.54284 l 1.64559,1.39464 0.66112,11.50633 c 0.87778,15.27734 0.23896,21.25796 -2.26792,21.23196 -0.55652,-0.006 -5.01319,-2.09423 -9.90371,-4.64102 z"
     id="path679" />
  <path
     style="fill:#ffffff;stroke-width:0.590068"
     d="m 179.99744,359.49903 c -8.19414,-9.33186 -33.2034,-47.41673 -31.95622,-48.66392 0.49502,-0.49501 16.32068,7.33455 23.9158,11.83207 6.68744,3.96003 11.95369,8.36628 13.44562,11.24989 1.7069,3.2991 2.5788,7.62176 2.93611,14.55652 0.40518,7.86379 -0.15917,10.36717 -2.84697,12.62881 -0.97685,0.82197 -2.00066,1.49448 -2.27513,1.49448 -0.27447,0 -1.72312,-1.39403 -3.21921,-3.09785 z"
     id="path681" />
  <path
     style="fill:#ffffff;stroke-width:0.590068"
     d="m 233.07692,407.99744 c -25.7789,-19.88092 -33.39991,-26.29065 -35.48084,-29.84149 l -1.59802,-2.72682 2.7783,-5.19952 c 3.35364,-6.27627 4.36284,-10.62704 4.88427,-21.05678 0.21498,-4.30012 0.52499,-7.8184 0.6889,-7.8184 0.16391,0 2.71167,1.2989 5.66169,2.88644 18.72228,10.07533 36.49031,18.35062 48.7371,22.69883 5.95043,2.1127 7.99611,3.44999 9.34315,6.10775 1.77664,3.50539 2.03853,6.60823 1.04411,12.37061 -1.63933,9.49938 -12.77566,38.58539 -14.7508,38.5263 -0.36051,-0.0108 -9.94904,-7.1869 -21.30786,-15.94692 z"
     id="path683" />
  <path
     style="fill:#ffffff;stroke-width:0.590068"
     d="m 338.69912,450.7043 c -15.06389,-1.92303 -46.00793,-10.58138 -57.25499,-16.02033 -10.28453,-4.97349 -10.76398,-8.1418 -3.54197,-23.40646 5.22271,-11.03889 6.35222,-15.64258 7.13922,-29.0983 0.27128,-4.63813 0.59515,-6.58803 1.0611,-6.38842 25.75025,11.03108 34.17796,14.06438 61.68539,22.2018 l 4.36821,1.29222 -0.40573,13.71098 c -0.79939,27.01431 -1.88479,36.12418 -4.46882,37.50711 -1.08823,0.58241 -4.89762,0.6718 -8.58241,0.2014 z"
     id="path685" />
  <path
     style="fill:#ffffff;stroke-width:0.590068"
     d="m 376.95313,454.56766 c -7.79312,-0.59545 -9.43174,-1.11952 -10.3258,-3.30245 -1.70586,-4.16499 -1.07752,-36.33619 0.86271,-44.1717 0.69216,-2.79524 0.78965,-2.89513 2.78014,-2.84852 1.13456,0.0266 5.38196,0.74569 9.43868,1.59806 4.05672,0.85236 11.35881,1.96852 16.22688,2.48036 15.55394,1.63535 19.28725,2.37729 20.7999,4.13365 1.04764,1.21643 1.32765,2.26471 1.32765,4.97028 0,2.95169 -4.7576,33.86425 -5.66027,36.77763 -0.2941,0.94922 -1.47235,1.0259 -14.58933,0.94946 -7.84816,-0.0457 -17.23541,-0.30978 -20.86056,-0.58677 z"
     id="path687" />
  <path
     style="fill:#ffffff;stroke-width:0.590068"
     d="m 428.09445,454.50991 c 0,-1.79244 4.78421,-26.82553 5.93913,-31.07616 1.47682,-5.43535 2.91335,-7.5117 5.74015,-8.2968 3.7415,-1.03913 28.23178,-0.43427 29.39198,0.72593 0.48262,0.48262 -6.84549,18.72849 -10.75446,26.77697 -3.50074,7.20792 -6.20467,10.27449 -10.0652,11.4151 -1.23999,0.36636 -6.30386,0.82045 -11.25306,1.00909 -7.80929,0.29766 -8.99854,0.22442 -8.99854,-0.55413 z"
     id="path689" />
  <path
     style="fill:#ffffff;stroke-width:0.590068"
     d="m 475.2999,450.06826 c 0,-1.38367 2.63708,-10.50944 6.00875,-20.79367 2.49275,-7.60338 5.10585,-13.47162 6.48205,-14.55679 0.9557,-0.75359 19.37209,-5.48742 19.37482,-4.98018 10e-4,0.19786 -2.11348,5.27207 -4.699,11.27601 -5.26592,12.22824 -6.51013,16.33167 -6.52327,21.51395 -0.005,1.96017 -0.20412,3.85695 -0.44255,4.21507 -0.23843,0.35812 -4.01818,1.39116 -8.39943,2.29566 -11.66,2.40715 -11.80137,2.41949 -11.80137,1.02995 z"
     id="path691" />
  <path
     style="fill:#ffffff;stroke-width:0.590068"
     d="m 512.22941,442.92746 c -0.45528,-0.73666 1.21113,-5.8309 4.69725,-14.35958 3.3858,-8.28325 5.63555,-12.70763 9.44729,-18.57915 3.42893,-5.28184 5.89243,-7.47891 6.77844,-6.04532 0.28334,0.45845 0.40597,1.36681 0.27251,2.01858 -0.13346,0.65177 -0.84127,3.84035 -1.57293,7.08572 -0.73795,3.27334 -1.3415,7.95952 -1.35548,10.52457 -0.023,4.21504 0.10311,4.72792 1.42606,5.80034 1.14389,0.92726 2.14374,1.13656 4.72055,0.98813 1.7981,-0.10358 3.36719,0.0475 3.48688,0.33581 0.11969,0.28827 -1.73903,2.08759 -4.13048,3.99849 -3.26755,2.61095 -5.30123,3.74362 -8.18353,4.55789 -2.10949,0.59595 -5.95969,1.68 -8.55599,2.40901 -2.5963,0.72901 -5.15526,1.44959 -5.68657,1.60128 -0.53131,0.15169 -1.13611,5.9e-4 -1.344,-0.33577 z"
     id="path693" />
  <path
     style="fill:#000000;stroke-width:0.590068"
     d="m 545.53923,426.3007 c -0.043,-1.84344 1.87677,-8.12754 4.49953,-14.72816 3.20481,-8.06549 9.75889,-21.1835 10.08899,-20.19317 0.3355,1.00647 -5.17599,17.00183 -8.7145,25.29112 -2.90972,6.8163 -5.828,11.60069 -5.87402,9.63021 z"
     id="path695" />
</svg>
